
<svg width="24px" height="24px" stroke-width="1.5" viewBox="0 0 24 24" fill="none" xmlns="http://www.w3.org/2000/svg" color="#000000"><path d="M866 1165 c-20 -21 -20 -39 0 -59 12 -12 37 -16 107 -16 l91 0 -172
-173 c-181 -182 -196 -206 -146 -229 24 -11 32 -5 202 165 98 97 180 177 184
177 4 0 9 -48 10 -107 3 -104 4 -108 26 -111 47 -7 52 10 52 159 l0 139 -29
32 -29 33 -140 3 c-119 3 -142 1 -156 -13z"/>
<path d="M273 1096 l-28 -24 -3 -401 -3 -400 30 -33 29 -33 402 0 402 0 29 33
29 32 0 210 c0 209 0 211 -22 219 -13 5 -30 5 -40 0 -16 -8 -18 -32 -20 -207
l-3 -197 -375 0 -375 0 0 370 0 370 194 3 c127 2 199 6 208 14 8 6 13 23 11
37 l-3 26 -217 3 -216 2 -29 -24z" stroke="#000000" stroke-width="1.5" stroke-linecap="round" stroke-linejoin="round"></path></svg>